<?xml version="1.0" standalone="no"?>
<!DOCTYPE svg PUBLIC "-//W3C//DTD SVG 20010904//EN"
 "http://www.w3.org/TR/2001/REC-SVG-20010904/DTD/svg10.dtd">
<svg version="1.0" xmlns="http://www.w3.org/2000/svg"
 width="1080.000000pt" height="1080.000000pt" viewBox="0 0 1080.000000 1080.000000"
 preserveAspectRatio="xMidYMid meet">

<g transform="translate(0.000000,1080.000000) scale(0.100000,-0.100000)"
fill="#000000" stroke="none">
<path d="M5065 10589 c-638 -37 -1333 -219 -1920 -503 -835 -404 -1547 -1022
-2060 -1791 -616 -924 -922 -2023 -866 -3119 18 -368 67 -698 151 -1031 319
-1261 1088 -2343 2175 -3060 222 -147 347 -218 590 -336 710 -345 1471 -519
2267 -519 787 0 1574 183 2283 530 377 185 713 404 1055 689 138 114 473 446
592 586 521 612 887 1313 1083 2080 115 449 165 841 165 1300 0 459 -50 851
-165 1300 -194 758 -545 1438 -1059 2050 -138 164 -453 479 -615 614 -479 399
-960 680 -1526 891 -691 258 -1400 363 -2150 319z m487 -4163 c88 -19 201 -72
300 -142 70 -49 85 -56 107 -48 29 10 48 56 58 137 5 40 10 48 30 53 14 4 28
3 32 -2 5 -5 5 -157 2 -339 l-6 -330 -24 -3 c-13 -2 -27 0 -32 5 -4 4 -19 61
-33 127 -32 148 -67 224 -142 305 -103 112 -217 167 -398 192 -109 15 -209 1
-305 -42 -89 -40 -211 -165 -268 -274 -175 -335 -192 -892 -38 -1247 45 -105
94 -175 175 -251 81 -77 165 -120 276 -143 171 -35 409 27 531 139 107 97 158
221 188 455 7 51 7 52 41 52 l34 0 0 -247 c0 -137 3 -291 6 -344 7 -103 2
-114 -44 -102 -15 4 -21 16 -25 57 -3 29 -12 69 -21 89 -21 51 -54 49 -137 -4
-88 -57 -202 -114 -274 -136 -49 -14 -93 -18 -235 -18 -152 0 -185 3 -255 23
-139 40 -255 104 -351 195 -97 91 -125 130 -182 243 -86 170 -114 307 -115
554 0 216 22 343 89 503 103 246 297 435 528 512 44 15 98 30 120 35 69 13
296 11 368 -4z m1990 0 c88 -19 201 -72 300 -142 70 -49 85 -56 107 -48 29 10
48 56 58 137 5 40 10 48 30 53 14 4 28 3 32 -2 5 -5 5 -157 2 -339 l-6 -330
-24 -3 c-13 -2 -27 0 -32 5 -6 6 -21 63 -34 128 -31 148 -65 223 -141 304
-103 112 -217 167 -398 192 -109 15 -209 1 -305 -42 -129 -59 -266 -230 -330
-414 -96 -278 -104 -701 -20 -990 12 -38 42 -113 67 -165 38 -79 61 -110 132
-181 98 -99 170 -139 296 -165 91 -19 170 -15 288 16 151 40 253 109 326 222
51 78 81 182 105 361 6 46 7 47 41 47 l34 0 0 -247 c0 -137 3 -291 6 -344 7
-103 2 -114 -44 -102 -15 4 -21 16 -25 57 -3 29 -12 69 -21 89 -21 51 -54 49
-137 -4 -103 -67 -213 -119 -301 -141 -110 -28 -353 -22 -468 11 -239 69 -433
231 -536 450 -79 165 -106 306 -106 541 0 184 11 271 53 405 91 296 300 522
563 610 44 15 98 30 120 35 69 13 296 11 368 -4z m-3462 -121 c-3 -66 -5 -182
-4 -257 l1 -138 -34 0 c-30 0 -33 3 -33 29 0 47 -40 232 -59 277 -27 60 -82
108 -149 130 -49 17 -89 19 -302 19 -228 0 -247 -1 -280 -20 -26 -16 -39 -33
-52 -70 -15 -44 -17 -95 -15 -445 l2 -395 109 -3 c222 -6 295 51 326 254 18
117 23 129 51 129 l24 0 7 -390 c4 -214 8 -399 10 -410 2 -16 -3 -21 -28 -23
-35 -3 -36 -2 -50 123 -14 130 -74 220 -161 244 -21 6 -95 11 -165 11 l-128 0
0 -397 c1 -563 -14 -535 301 -541 289 -6 398 17 484 102 72 70 88 117 133 371
6 36 10 40 35 40 l29 0 -1 -180 c-1 -99 3 -225 9 -279 8 -78 8 -101 -2 -108
-7 -4 -344 -7 -748 -5 l-735 2 -3 26 c-3 25 -1 26 64 33 81 8 118 26 141 69
17 30 18 89 18 897 0 808 -1 867 -18 897 -23 43 -60 61 -141 69 -59 6 -66 9
-66 29 0 12 3 25 7 28 3 4 326 6 717 5 l711 -3 -5 -120z"/>
</g>
</svg>
