<?xml version="1.0" standalone="no"?>
<!DOCTYPE svg PUBLIC "-//W3C//DTD SVG 20010904//EN"
 "http://www.w3.org/TR/2001/REC-SVG-20010904/DTD/svg10.dtd">
<svg version="1.0" xmlns="http://www.w3.org/2000/svg"
 width="1080.000000pt" height="1080.000000pt" viewBox="0 0 1080.000000 1080.000000"
 preserveAspectRatio="xMidYMid meet">

<g transform="translate(0.000000,1080.000000) scale(0.100000,-0.100000)"
fill="#000000" stroke="none">
<path d="M5170 7559 c-668 -83 -1217 -526 -1439 -1163 -18 -49 -44 -146 -58
-215 -25 -114 -27 -146 -27 -341 0 -195 2 -227 27 -341 35 -165 74 -275 152
-434 87 -175 175 -295 325 -445 148 -149 268 -236 445 -325 370 -185 776 -232
1176 -136 825 196 1393 980 1321 1819 -69 793 -645 1425 -1429 1567 -105 19
-388 27 -493 14z m300 -1390 c24 -11 53 -28 63 -37 18 -16 20 -16 33 3 8 10
14 25 14 32 0 7 5 13 10 13 6 0 10 -43 10 -110 0 -91 -3 -110 -15 -110 -8 0
-15 8 -15 18 0 106 -92 192 -205 192 -62 0 -97 -14 -137 -57 -89 -94 -112
-331 -47 -483 54 -125 181 -171 294 -106 52 29 76 65 90 133 6 31 17 59 23 61
9 3 12 -27 12 -112 0 -64 -4 -116 -8 -116 -4 0 -13 13 -19 30 l-11 30 -67 -35
c-59 -31 -75 -35 -143 -35 -137 0 -237 66 -282 187 -53 143 -26 322 65 431 14
17 53 45 87 61 77 39 176 43 248 10z m709 -16 c29 -18 55 -33 57 -33 3 0 10
14 15 30 20 56 29 30 29 -80 0 -85 -3 -110 -13 -110 -8 0 -19 21 -26 52 -23
100 -95 157 -199 158 -70 0 -116 -23 -152 -74 -48 -71 -65 -138 -65 -261 0
-147 20 -213 83 -276 125 -125 314 -61 338 114 4 30 12 47 20 47 11 0 14 -24
14 -115 0 -115 -9 -141 -29 -85 l-10 30 -66 -35 c-59 -31 -75 -35 -139 -35
-137 0 -228 56 -282 172 -26 58 -29 72 -28 173 0 140 23 205 98 281 66 66 116
84 222 81 72 -2 87 -6 133 -34z m-1259 -58 c0 -52 -4 -85 -10 -85 -12 0 -16
10 -25 64 -3 21 -17 49 -30 62 -22 22 -32 24 -123 24 -63 0 -102 -4 -110 -12
-8 -8 -12 -58 -12 -160 l0 -148 36 0 c64 0 98 29 108 92 12 74 26 39 26 -66 0
-57 3 -118 6 -135 5 -24 3 -31 -8 -31 -10 0 -18 14 -22 40 -8 49 -34 77 -80
86 -65 12 -66 10 -66 -148 0 -79 4 -149 9 -157 11 -17 93 -26 166 -16 77 9
105 35 120 110 19 95 35 82 35 -29 l0 -96 -257 1 c-172 1 -248 4 -227 10 17 5
37 15 43 23 8 9 11 101 9 316 -3 327 1 304 -58 328 -18 8 42 11 223 11 l247 1
0 -85z"/>
</g>
</svg>
