<?xml version="1.0" standalone="no"?>
<!DOCTYPE svg PUBLIC "-//W3C//DTD SVG 20010904//EN"
 "http://www.w3.org/TR/2001/REC-SVG-20010904/DTD/svg10.dtd">
<svg version="1.0" xmlns="http://www.w3.org/2000/svg"
 width="1080.000000pt" height="1080.000000pt" viewBox="0 0 1080.000000 1080.000000"
 preserveAspectRatio="xMidYMid meet">

<g transform="translate(0.000000,1080.000000) scale(0.100000,-0.100000)"
fill="#000000" stroke="none">
<path d="M4521 6178 c-97 -13 -267 -72 -354 -122 -243 -139 -409 -351 -493
-631 -26 -84 -28 -103 -28 -275 0 -172 2 -191 28 -275 128 -426 463 -711 889
-757 495 -53 950 240 1104 711 l38 116 0 205 c0 198 -1 208 -28 295 -35 107
-94 228 -152 310 -49 69 -187 205 -258 254 -207 142 -489 206 -746 169z m232
-838 c44 -24 47 -24 47 -5 0 8 5 15 10 15 6 0 10 -28 10 -65 0 -69 -14 -87
-24 -32 -10 51 -68 97 -123 97 -41 0 -87 -32 -109 -76 -14 -30 -19 -60 -19
-129 0 -104 19 -156 69 -186 79 -48 186 7 186 96 0 14 5 25 10 25 6 0 10 -30
10 -70 0 -40 -4 -70 -10 -70 -5 0 -10 7 -10 15 0 19 -2 19 -50 -6 -84 -44
-204 -8 -247 74 -21 42 -29 154 -13 201 15 47 65 105 105 122 45 20 115 17
158 -6z m411 -1 c36 -19 39 -19 52 -2 12 16 13 10 14 -49 0 -39 -4 -68 -10
-68 -5 0 -10 9 -10 21 0 53 -64 109 -125 109 -82 0 -130 -75 -130 -205 0 -127
51 -205 135 -205 62 0 120 52 120 109 0 11 5 23 10 26 6 4 10 -21 10 -67 -1
-64 -2 -71 -14 -55 -13 17 -16 17 -56 -4 -53 -28 -143 -23 -191 12 -93 66
-105 254 -21 343 55 58 145 73 216 35z m-758 -11 c-3 -13 -6 -36 -7 -53 l-1
-30 -10 35 c-13 49 -32 60 -104 60 -74 0 -74 -1 -74 -111 l0 -79 29 0 c34 0
61 23 61 50 0 10 5 22 10 25 6 4 10 -26 9 -82 0 -75 -2 -83 -11 -58 -16 45
-27 55 -64 55 l-34 0 0 -79 c0 -110 0 -111 74 -111 74 0 103 17 112 65 10 53
24 42 24 -20 l0 -55 -157 1 c-87 1 -148 4 -137 6 30 6 34 27 34 198 0 171 -4
192 -34 198 -11 2 48 5 133 6 l153 1 -6 -22z"/>
</g>
</svg>
